# xmcd CD database file
#
# Track frame offsets:
#	150
#	10349
#	24058
#	37331
#	48371
#	60757
#	73649
#	85657
#	96558
#	106455
#	118377
#	131451
#	142620
#	152043
#	161485
#
# Disc length: 2377 seconds
#
# Revision: 6
# Processed by: cddbd v1.5.1PL2 Copyright (c) Steve Scherf et al.
# Submitted via: CDex 1.51
#
DISCID=bd09470f
DTITLE=Round Trip To Rio - Orchester Pete Jacques
DYEAR=2005
DGENRE=Jazz
TTITLE0=Round Trip To Rio
TTITLE1=Bright Shining Stars
TTITLE2=Fanatico
TTITLE3=Pretty Belinda
TTITLE4=Cool Touch
TTITLE5=Sandwichman
TTITLE6=Blue Water
TTITLE7=Bossa da Bahia
TTITLE8=Dengosa
TTITLE9=Bacana
TTITLE10=Fruit Vendor
TTITLE11=Rebecca
TTITLE12=Avenida Copacabana
TTITLE13=Easy Motion
TTITLE14=Fata Morgana
EXTD=YEAR: 2005
EXTT0=
EXTT1=
EXTT2=
EXTT3=
EXTT4=
EXTT5=
EXTT6=
EXTT7=
EXTT8=
EXTT9=
EXTT10=
EXTT11=
EXTT12=
EXTT13=
EXTT14=
PLAYORDER=
